# xmcd
#
# Track frame offsets: 
#        150
#        16890
#        48460
#        76526
#        113563
#        138543
#        156308
#        186647
#        208268
#        232412
#        254111
#        277813
#        299616
#        317880
#        340858
#
# Disc length: 4772 seconds
#
# Revision: 0
# Processed by: cddbd v1.5.2PL0 Copyright (c) Steve Scherf et al.
# Submitted via: ExactAudioCopy v1.3
#
DISCID=ea12a20f
DTITLE=Various Artist - Akella Presents - vol. 124 - Black Pure Blues
DTITLE=CD1
DYEAR=2018
DGENRE=Blues
TTITLE0=Jordan Patterson - Blues Hotel
TTITLE1=Gary B. B. Coleman - Blues At Sunrise
TTITLE2=Mike Wheeler - Self Made Man
TTITLE3=Doni Harvey - So Hard
TTITLE4=George Stancell - Leave A Light On Baby
TTITLE5=Big Joe Duskin - Mean And Evil Woman
TTITLE6=Luther Allison - Let's Try Again
TTITLE7=Bernard Allison - Blues Party
TTITLE8=Big Al Carson - Champagne and Reefer
TTITLE9=The Crudup Brothers - Who's Talking
TTITLE10=Jr. Drinkwater and The Thrist Quenchers - Fancy Pants
TTITLE11=Tre - I'm Very Superstitious
TTITLE12=2000 Lbs Of Blues - Clownfaced Woman
TTITLE13=Clifford Scott - Summertime
TTITLE14=Robert Ealey - Mambo Jambo
EXTD=
EXTT0=
EXTT1=
EXTT2=
EXTT3=
EXTT4=
EXTT5=
EXTT6=
EXTT7=
EXTT8=
EXTT9=
EXTT10=
EXTT11=
EXTT12=
EXTT13=
EXTT14=
PLAYORDER=
